<svg width="14" height="13" viewBox="0 0 14 13" fill="none" xmlns="http://www.w3.org/2000/svg">
<path d="M6.99968 12.5C6.56968 12.1187 6.08368 11.722 5.56968 11.3H5.56302C3.75302 9.82002 1.70168 8.14535 0.795682 6.13868C0.498349 5.50002 0.340349 4.80535 0.333015 4.10002C0.332028 3.62134 0.42669 3.14729 0.611444 2.7057C0.796198 2.26411 1.06732 1.86389 1.40889 1.52853C1.75046 1.19317 2.15559 0.929437 2.60049 0.752816C3.04539 0.576195 3.5211 0.490246 3.99968 0.500016C4.78677 0.501259 5.55691 0.728737 6.21835 1.15535C6.509 1.344 6.77196 1.57219 6.99968 1.83335C7.22902 1.57335 7.49168 1.34535 7.78168 1.15535C8.44284 0.728653 9.21279 0.501162 9.99968 0.500016C10.4783 0.490246 10.954 0.576195 11.3989 0.752816C11.8438 0.929437 12.2489 1.19317 12.5905 1.52853C12.932 1.86389 13.2032 2.26411 13.3879 2.7057C13.5727 3.14729 13.6673 3.62134 13.6664 4.10002C13.6596 4.80589 13.5018 5.50214 13.2037 6.14202C12.2977 8.14868 10.247 9.82268 8.43702 11.3L8.43035 11.3053C7.91568 11.7247 7.43035 12.1213 7.00035 12.5053L6.99968 12.5ZM3.99968 1.83335C3.37869 1.82558 2.77973 2.06325 2.33302 2.49468C2.11999 2.70394 1.95119 2.95388 1.83667 3.22965C1.72214 3.50543 1.66422 3.80141 1.66635 4.10002C1.67368 4.61335 1.79035 5.12002 2.00768 5.58535C2.43537 6.45115 3.01243 7.23471 3.71235 7.90001C4.37302 8.56668 5.13302 9.21201 5.79035 9.75468C5.97235 9.90468 6.15768 10.056 6.34302 10.2073L6.45968 10.3027C6.63768 10.448 6.82168 10.5987 6.99968 10.7467L7.00835 10.7387L7.01235 10.7353H7.01635L7.02235 10.7307H7.02902L7.04102 10.7207L7.06835 10.6987L7.07302 10.6947L7.08035 10.6893H7.08435L7.09035 10.684L7.53302 10.3207L7.64902 10.2253C7.83635 10.0727 8.02168 9.92135 8.20368 9.77135C8.86102 9.22868 9.62168 8.58401 10.2824 7.91401C10.9824 7.24907 11.5595 6.46571 11.987 5.60002C12.2084 5.13068 12.327 4.61868 12.3337 4.10002C12.335 3.80227 12.2766 3.50728 12.162 3.23247C12.0473 2.95766 11.8788 2.70861 11.6664 2.50002C11.2205 2.06663 10.6214 1.827 9.99968 1.83335C9.62457 1.83016 9.25303 1.90639 8.90948 2.05702C8.56593 2.20766 8.25814 2.42929 8.00635 2.70735L6.99968 3.86735L5.99302 2.70735C5.74122 2.42929 5.43344 2.20766 5.08988 2.05702C4.74633 1.90639 4.37479 1.83016 3.99968 1.83335Z" fill="white"/>
</svg>
