<svg width="16" height="17" viewBox="0 0 16 17" fill="none" xmlns="http://www.w3.org/2000/svg">
<path d="M12 11.2536C11.4936 11.2536 11.0368 11.4504 10.6904 11.7672L5.94 8.99679C5.9768 8.84639 6 8.68959 6 8.52959C6 8.36959 5.9768 8.21359 5.94 8.06319L10.64 5.31999C11.008 5.66669 11.4944 5.85984 12 5.85999C13.1032 5.85999 14 4.96319 14 3.85999C14 2.75679 13.1032 1.85999 12 1.85999C10.8968 1.85999 10 2.75679 10 3.85999C10 4.01999 10.0232 4.17679 10.06 4.32639L5.36 7.06959C4.99181 6.72322 4.5055 6.53013 4 6.52959C2.8968 6.52959 2 7.42639 2 8.52959C2 9.63279 2.8968 10.5296 4 10.5296C4.50558 10.5294 4.99203 10.3363 5.36 9.98959L10.1104 12.76C10.0754 12.903 10.0574 13.0496 10.0568 13.1968C10.057 13.5809 10.171 13.9563 10.3845 14.2756C10.598 14.5949 10.9014 14.8438 11.2562 14.9907C11.6111 15.1376 12.0016 15.176 12.3783 15.101C12.7551 15.026 13.1011 14.8411 13.3727 14.5695C13.6443 14.2979 13.8293 13.9518 13.9042 13.5751C13.9792 13.1984 13.9408 12.8079 13.7939 12.453C13.647 12.0981 13.3981 11.7948 13.0788 11.5813C12.7595 11.3678 12.3841 11.2537 12 11.2536Z" fill="white"/>
</svg>
